<?xml version="1.0" encoding="utf-8"?>
<!-- Generator: Adobe Illustrator 27.8.1, SVG Export Plug-In . SVG Version: 6.00 Build 0)  -->
<svg version="1.1" id="Layer_1" xmlns="http://www.w3.org/2000/svg" xmlns:xlink="http://www.w3.org/1999/xlink" x="0px" y="0px"
	 viewBox="0 0 152.529 140.98" style="enable-background:new 0 0 152.529 140.98;" xml:space="preserve">
<style type="text/css">
	.st0{fill:#FFFFFF;}
</style>
<g>
	<path class="st0" d="M23.1657,27.0145c0,1.68-0.278,3.082-0.832,4.207c-0.556,1.125-1.26,2.041-2.115,2.745
		c-0.856,0.705-1.816,1.208-2.88,1.508c-1.066,0.3-2.109,0.45-3.128,0.45h-9.449v-31.86h8.459c0.929,0,1.919,0.112,2.97,0.337
		c1.05,0.226,2.01,0.63,2.88,1.215c0.87,0.585,1.59,1.395,2.16,2.43c0.57,1.036,0.855,2.378,0.855,4.028c0,1.98-0.42,3.54-1.26,4.68
		c-0.84,1.141-1.814,1.935-2.925,2.385v0.09c0.601,0.15,1.208,0.405,1.823,0.765c0.614,0.36,1.176,0.862,1.688,1.508
		c0.51,0.645,0.929,1.425,1.26,2.339C23.0017,24.7575,23.1657,25.8145,23.1657,27.0145 M17.2257,12.9295
		c0-0.81-0.127-1.492-0.38-2.048c-0.253-0.554-0.582-1.004-0.984-1.35c-0.403-0.344-0.872-0.592-1.409-0.742
		c-0.537-0.15-1.088-0.225-1.654-0.225h-2.953v8.865h3.042c0.537,0,1.066-0.082,1.588-0.248c0.522-0.164,0.983-0.427,1.386-0.787
		c0.402-0.36,0.731-0.825,0.984-1.395S17.2257,13.7395,17.2257,12.9295 M17.9917,26.5645c0-0.93-0.15-1.717-0.449-2.363
		c-0.297-0.644-0.686-1.17-1.163-1.575c-0.478-0.405-0.999-0.697-1.566-0.877c-0.566-0.18-1.134-0.27-1.701-0.27h-3.267v9.945h3.402
		c0.656,0,1.267-0.097,1.834-0.293c0.567-0.194,1.066-0.495,1.5-0.9c0.431-0.405,0.775-0.907,1.029-1.507
		C17.8637,28.1245,17.9917,27.4045,17.9917,26.5645"/>
	<polygon class="st0" points="29.2495,35.9243 29.2495,4.0643 43.5155,4.0643 43.5155,8.8343 34.4255,8.8343 34.4255,17.2943 
		42.8395,17.2943 42.8395,21.7043 34.4255,21.7043 34.4255,31.1093 43.9645,31.1093 43.9645,35.9243 	"/>
	<polygon class="st0" points="55.2554,8.9243 55.2554,17.6543 63.4444,17.6543 63.4444,22.2443 55.3004,22.2443 55.3004,35.9243 
		49.8554,35.9243 49.8554,4.0643 64.1194,4.0643 64.1194,8.9243 	"/>
	<path class="st0" d="M91.4389,19.9492c0,2.52-0.263,4.808-0.787,6.863c-0.525,2.055-1.283,3.818-2.273,5.287
		c-0.99,1.47-2.198,2.61-3.623,3.42c-1.424,0.81-3.022,1.215-4.792,1.215c-1.8,0-3.406-0.405-4.815-1.215
		c-1.41-0.81-2.61-1.95-3.601-3.42c-0.989-1.469-1.747-3.232-2.271-5.287c-0.525-2.055-0.787-4.343-0.787-6.863
		s0.254-4.799,0.764-6.84c0.509-2.04,1.26-3.795,2.25-5.265c0.99-1.469,2.197-2.602,3.623-3.397
		c1.424-0.795,3.037-1.193,4.837-1.193c1.77,0,3.368,0.398,4.792,1.193c1.425,0.795,2.633,1.928,3.623,3.397
		c0.99,1.47,1.748,3.225,2.273,5.265C91.1759,15.1502,91.4389,17.4292,91.4389,19.9492 M85.8589,19.9492
		c0-1.62-0.128-3.142-0.383-4.567c-0.255-1.425-0.629-2.655-1.125-3.69c-0.494-1.035-1.109-1.852-1.845-2.453
		c-0.735-0.6-1.583-0.9-2.542-0.9c-0.99,0-1.853,0.3-2.587,0.9c-0.736,0.601-1.35,1.418-1.845,2.453
		c-0.495,1.035-0.862,2.265-1.103,3.69c-0.24,1.425-0.36,2.947-0.36,4.567s0.12,3.143,0.36,4.567
		c0.241,1.426,0.608,2.663,1.103,3.713c0.495,1.051,1.109,1.875,1.845,2.475c0.734,0.6,1.597,0.9,2.587,0.9
		c0.991,0,1.852-0.3,2.588-0.9c0.735-0.6,1.35-1.424,1.844-2.475c0.496-1.05,0.863-2.287,1.104-3.713
		C85.7389,23.0922,85.8589,21.5692,85.8589,19.9492"/>
	<path class="st0" d="M109.9777,35.9243l-4.949-13.59h-3.015v13.59h-5.219v-31.86h9.09c1.319,0,2.534,0.173,3.644,0.518
		c1.11,0.345,2.063,0.892,2.858,1.642c0.795,0.75,1.418,1.695,1.867,2.835c0.45,1.14,0.676,2.505,0.676,4.095
		c0,1.23-0.159,2.317-0.473,3.263c-0.316,0.945-0.713,1.747-1.193,2.407c-0.48,0.66-1.012,1.192-1.598,1.598
		c-0.584,0.404-1.162,0.682-1.733,0.832l5.716,14.67H109.9777z M109.6187,13.4243c0-0.96-0.135-1.755-0.404-2.385
		c-0.271-0.63-0.623-1.125-1.059-1.485c-0.434-0.36-0.922-0.614-1.462-0.765c-0.54-0.15-1.08-0.225-1.62-0.225h-3.06v9.81h3.06
		c1.32,0,2.408-0.412,3.263-1.238C109.1907,16.3123,109.6187,15.0743,109.6187,13.4243"/>
	<polygon class="st0" points="121.1245,35.9243 121.1245,4.0643 135.3895,4.0643 135.3895,8.8343 126.2995,8.8343 126.2995,17.2943 
		134.7145,17.2943 134.7145,21.7043 126.2995,21.7043 126.2995,31.1093 135.8395,31.1093 135.8395,35.9243 	"/>
	<polygon class="st0" points="144.3481,41.5044 140.3431,41.5044 142.9521,29.3994 147.7681,29.3994 	"/>
	<path class="st0" d="M24.0968,66.0396c0,5.04-1.056,8.948-3.171,11.722c-2.116,2.776-5.229,4.163-9.338,4.163h-7.965v-31.86h8.01
		c4.08,0,7.177,1.403,9.293,4.207C23.0408,57.0776,24.0968,60.9996,24.0968,66.0396 M18.6968,66.0396c0-1.89-0.172-3.54-0.518-4.95
		c-0.344-1.41-0.832-2.58-1.461-3.51c-0.63-0.93-1.38-1.627-2.25-2.093c-0.871-0.465-1.816-0.697-2.835-0.697h-2.565v22.41h2.565
		c1.019,0,1.964-0.232,2.835-0.698c0.87-0.464,1.62-1.162,2.25-2.092c0.629-0.93,1.117-2.093,1.461-3.488
		C18.5248,69.5266,18.6968,67.8996,18.6968,66.0396"/>
	<path class="st0" d="M49.4048,75.3545c-0.36,1.47-0.944,2.752-1.755,3.847c-0.81,1.096-1.853,1.958-3.127,2.588
		c-1.275,0.63-2.828,0.945-4.658,0.945c-1.83,0-3.375-0.315-4.635-0.945c-1.26-0.63-2.288-1.492-3.082-2.588
		c-0.796-1.095-1.366-2.377-1.711-3.847c-0.344-1.47-0.517-3.045-0.517-4.725v-20.565h5.4v20.07c0,0.99,0.067,1.943,0.203,2.857
		c0.135,0.916,0.374,1.718,0.719,2.408c0.346,0.69,0.818,1.237,1.418,1.642c0.599,0.405,1.365,0.608,2.295,0.608
		c0.929,0,1.695-0.203,2.295-0.608c0.599-0.405,1.072-0.952,1.418-1.642c0.343-0.69,0.585-1.492,0.719-2.408
		c0.136-0.914,0.203-1.867,0.203-2.857v-20.07h5.355v20.565C49.9448,72.3095,49.7648,73.8845,49.4048,75.3545"/>
	<path class="st0" d="M69.4288,81.9243l-4.95-13.59h-3.014v13.59h-5.221v-31.86h9.09c1.32,0,2.535,0.173,3.645,0.518
		c1.11,0.345,2.062,0.892,2.858,1.642c0.794,0.75,1.417,1.695,1.868,2.835c0.449,1.14,0.674,2.505,0.674,4.095
		c0,1.23-0.158,2.317-0.473,3.263c-0.315,0.945-0.713,1.747-1.191,2.407c-0.481,0.66-1.014,1.192-1.598,1.598
		c-0.586,0.404-1.163,0.682-1.733,0.832l5.715,14.67H69.4288z M69.0688,59.4243c0-0.96-0.135-1.755-0.405-2.385
		c-0.27-0.63-0.623-1.125-1.057-1.485c-0.435-0.36-0.923-0.614-1.463-0.765c-0.54-0.15-1.08-0.225-1.62-0.225h-3.059v9.81h3.059
		c1.319,0,2.407-0.412,3.263-1.238C68.6418,62.3123,69.0688,61.0743,69.0688,59.4243"/>
	<rect x="80.552" y="50.064" class="st0" width="5.4" height="31.86"/>
	<polygon class="st0" points="106.4722,81.9243 97.4272,59.4243 97.2922,59.4243 97.3822,81.9243 92.5232,81.9243 92.5232,50.0643 
		98.6872,50.0643 107.6422,72.6993 107.7772,72.6993 107.7322,50.0643 112.4112,50.0643 112.4112,81.9243 	"/>
	<path class="st0" d="M134.6196,81.8794c-1.335,0.479-2.933,0.72-4.792,0.72c-1.891,0-3.586-0.398-5.086-1.193
		c-1.5-0.794-2.768-1.927-3.803-3.397c-1.035-1.47-1.83-3.225-2.384-5.265c-0.555-2.04-0.832-4.304-0.832-6.795
		c0-2.43,0.269-4.665,0.809-6.705c0.54-2.04,1.319-3.802,2.341-5.287c1.019-1.486,2.25-2.64,3.689-3.466
		c1.44-0.824,3.061-1.237,4.86-1.237c1.89,0,3.525,0.337,4.906,1.012c1.379,0.676,2.504,1.628,3.375,2.858l-3.105,3.78
		c-1.202-1.74-2.821-2.61-4.861-2.61c-1.11,0-2.077,0.315-2.902,0.945c-0.825,0.63-1.507,1.478-2.048,2.542
		c-0.539,1.066-0.945,2.303-1.215,3.713c-0.269,1.41-0.404,2.895-0.404,4.455c0,1.62,0.135,3.143,0.404,4.567
		c0.27,1.425,0.676,2.671,1.215,3.736c0.541,1.065,1.223,1.897,2.048,2.497c0.825,0.6,1.807,0.9,2.947,0.9
		c0.72,0,1.372-0.082,1.958-0.248c0.584-0.164,1.057-0.382,1.417-0.652v-8.235h-3.87v-4.68h8.775v16.155
		C137.1006,80.7704,135.9546,81.4004,134.6196,81.8794"/>
	<polygon class="st0" points="145.4868,87.5044 141.4818,87.5044 144.0908,75.3994 148.9068,75.3994 	"/>
	<path class="st0" d="M12.246,119.7242c0-8.601,7.25-18.302,16.4-18.302c1.4,0,3.801,0.25,6.551,1.401l-3.151,19.3
		c-0.15,1,0.25,1.401,0.951,1.401c0.85,0,1.95-0.85,2.75-1.651c0.35-0.349,0.5-0.349,0.85-0.048c0.35,0.298,0.3,0.548-0.051,1.048
		c-2.299,3.051-5.25,4.401-7.4,4.401c-2.25,0-3.05-1.55-2.75-3.35l0.85-4.451c-1.75,4.602-3.95,7.801-8.45,7.801
		C15.445,127.2742,12.246,125.4242,12.246,119.7242 M28.646,109.7232l1.051-5.65c-0.451-0.901-1.601-1.05-2.351-1.05
		c-6.85,0-9.45,10.6-9.45,16.1c0,3.5,1.1,5.651,2.949,5.651C24.696,124.7742,27.447,116.1232,28.646,109.7232"/>
	<path class="st0" d="M39.0149,136.7754c0.199-1.201,1.35-0.75,1.901-4.901l3.25-24.251c0.25-1.801-0.951-2.051-2.651-1.801
		l0.25-1.699c4.401-0.85,6.35-2.85,7.301-2.85c0.85,0,1.199,0.599,1.05,1.649l-1.601,10.251c2.451-6.601,6.301-11.7,10.901-11.7
		c2.9,0,5.9,2.05,5.9,7.15c0,7.1-5.75,18.701-14.551,18.701c-1.199,0-2.599-0.25-3.699-0.7l-0.701,4.4
		c-0.25,1.751,0.75,2.15,3.1,1.9l-0.25,1.801c-4.85,0.849-7.7,3-9.299,3C39.2649,137.7254,38.9159,137.3754,39.0149,136.7754
		 M59.8159,107.9234c0-3.05-0.85-4.251-2.15-4.251c-4.1,0-8.951,11.852-9.651,16.852c-0.449,3.099-0.099,5.2,2.651,5.2
		C57.4159,125.7244,59.8159,113.0724,59.8159,107.9234"/>
	<path class="st0" d="M71.3696,126.9243l3.05-20.252c0.15-0.949-0.151-1.399-0.85-1.399c-0.9,0-2,0.85-2.95,1.799
		c-0.5,0.5-0.7,0.401-1.05,0.101c-0.25-0.3-0.25-0.501,0.15-1.001c2.6-3.299,5.501-4.699,7.751-4.699
		c2.199,0,2.75,1.349,2.349,3.449l-1.8,9.401c2.701-7.95,5.55-12.901,9.801-12.901c2.2,0,3.3,1.4,3.3,2.951
		c0,1.65-1.199,3.05-2.75,3.05c-2.2,0-2.2-2.45-3.45-2.45c-3.45,0-7.351,13.801-8.351,21.951H71.3696z"/>
	<path class="st0" d="M91.9501,117.8738c0-8.6,6.95-16.401,14.251-16.401c3.45,0,5.2,1.95,5.2,4.5c0,6.1-9.7,10-13.801,11.351
		c-0.2,3.8,1.899,6.55,4.899,6.55c2.202,0,4.301-1.5,5.952-3.75c0.349-0.4,0.549-0.55,1-0.55h0.4c0.699,0,0.6,0.7,0.1,1.5
		c-2.301,3.751-5.5,6.2-9.702,6.2C96.1501,127.2738,91.9501,124.5748,91.9501,117.8738 M106.9001,106.0728c0-1.6-0.549-3-1.949-3
		c-2.851,0-6.75,5.701-7.251,12.602C104.3511,113.4728,106.9001,109.4238,106.9001,106.0728 M110.1011,98.8228l0.55-0.9l-7.3-5.5
		c-0.801-0.6-1.551-0.901-2.15-0.901c-0.951,0-1.601,0.7-1.601,1.7c0,1.25,0.95,1.901,2.251,2.401L110.1011,98.8228z"/>
	<path class="st0" d="M114.2495,122.7241c0-1.25,0.95-2.101,2.2-2.101c3.2,0,2.851,5.301,6.2,5.301c1.5,0,2.451-1,2.451-2.599
		c0-2.101-1.75-4.202-4.05-7.401c-2.051-2.9-4.151-5.351-4.151-8.251c0-3.55,3.1-6.2,7.901-6.2c3.4,0,6.45,1.949,6.45,4.25
		c0,1.15-0.75,1.9-1.95,1.9c-3.151,0-3.151-4.65-5.85-4.65c-1.201,0-2.15,0.949-2.15,2.25c0,1.449,1.349,3.2,4.05,7
		c2.1,3,4.549,6.051,4.549,8.951c0,3.901-4.049,6.2-8.349,6.2C117.1495,127.3741,114.2495,125.0241,114.2495,122.7241"/>
</g>
</svg>
